PathFileType	4	(X/Y/Z)	C:\Users\chris\Documents\GitHub\baseballds\vids\pitch5_Sports2D\pitch5_Sports2D_m_person01.trc
DataRate	CameraRate	NumFrames	NumMarkers	Units	OrigDataRate	OrigDataStartFrame	OrigNumFrames
30	30	9	22	m	30	111	149
Frame#	Time	Hip			RHip			RKnee			RAnkle			RBigToe			RSmallToe			RHeel			LHip			LKnee			LAnkle			LBigToe			LSmallToe			LHeel			Neck			Head			Nose			RShoulder			RElbow			RWrist			LShoulder			LElbow			LWrist		
		X1	Y1	Z1	X2	Y2	Z2	X3	Y3	Z3	X4	Y4	Z4	X5	Y5	Z5	X6	Y6	Z6	X7	Y7	Z7	X8	Y8	Z8	X9	Y9	Z9	X10	Y10	Z10	X11	Y11	Z11	X12	Y12	Z12	X13	Y13	Z13	X14	Y14	Z14	X15	Y15	Z15	X16	Y16	Z16	X17	Y17	Z17	X18	Y18	Z18	X19	Y19	Z19	X20	Y20	Z20	X21	Y21	Z21	X22	Y22	Z22
111	3.6999999999999997	0.7566266913251941	0.9383231945782706	0.0	0.6925982302396716	0.9263972291076961	0.0	0.7149699344701402	0.7153349527204433	0.0	0.7637830813797366	0.5488481611386178	0.0	0.7746909454543176	0.4504728857800528	0.0	0.7481956949906914	0.4611220238207882	0.0	0.7837651762713478	0.5247032462690712	0.0	0.8216431938837147	0.9362796940319025	0.0	0.8145330690561415	0.7055396836242315	0.0	0.793219545014876	0.4734254650649445	0.0	0.7670013756526656	0.3912949229310658	0.0	0.8050406821452645	0.3989489763111223	0.0	0.7832431184503545	0.4408564527515102	0.0	0.7328443520435722	1.2931648452537032	0.0	0.741268608410615	1.4420273494946334	0.0	0.7747401054625774	1.3573879696153208	0.0	0.6069186425671097	1.2422648986351579	0.0	0.596274733678355	1.077618760074605	0.0	0.689975332379126	0.9923291301853799	0.0	0.8454469906330998	1.2508311609573164	0.0	0.8738347633276615	1.0991901458938413	0.0	0.7804344845516351	0.9994784677765998	0.0
112	3.7333333333333334	0.7534894758633353	0.9389788193466297	0.0	0.689401548131676	0.9253131682466019	0.0	0.7089432708985068	0.7121979220458495	0.0	0.7627524425124264	0.5516878351393654	0.0	0.7735970208934545	0.4608108841546884	0.0	0.7483279999044276	0.46886377414376085	0.0	0.7826266545587944	0.5304876786386316	0.0	0.8198153511053741	0.935884524939962	0.0	0.8151899498156416	0.7057333756325088	0.0	0.792593734948898	0.47275761605395183	0.0	0.7663693071778759	0.3914475438241516	0.0	0.8038541798705515	0.39940704381189956	0.0	0.7827773736445983	0.4392187311228471	0.0	0.7319605862714693	1.2941684732822627	0.0	0.7400809176845421	1.4467740266202178	0.0	0.7732451519083543	1.3598724454670252	0.0	0.6033476069092732	1.243563381429247	0.0	0.5936998992806384	1.0807562100121046	0.0	0.685452056334739	0.9906113393020556	0.0	0.8461859596568995	1.2509923611886484	0.0	0.8723023350793082	1.0982223004841325	0.0	0.779573551992832	0.9987146614932199	0.0
113	3.7666666666666666	0.7502200403402247	0.9382160450726833	0.0	0.6861274378193519	0.9247424490680144	0.0	0.7022631840395012	0.7065212157846044	0.0	0.7599018578534201	0.5547751263933339	0.0	0.7746227550029199	0.4666720848910695	0.0	0.7488602120994292	0.4711202752129134	0.0	0.7803718829141499	0.5335520683316761	0.0	0.8169513354141552	0.9350154812324084	0.0	0.8152184520031371	0.7053030184555217	0.0	0.7914952981162477	0.4731360229886713	0.0	0.7656216116942104	0.392073400847696	0.0	0.8028472604361577	0.40035609422635754	0.0	0.783083752343025	0.4383801063081027	0.0	0.7306204106147502	1.2965287409966846	0.0	0.7387258372023048	1.452474853702625	0.0	0.7727752920437252	1.3643985086803592	0.0	0.6003155400325173	1.2455080719363023	0.0	0.5908407764808619	1.0834564712811303	0.0	0.6835798090700287	0.9891991148642585	0.0	0.8464695304588187	1.251486604104563	0.0	0.8709291530536225	1.0974513969133513	0.0	0.7770327984592974	0.9968152432645204	0.0
114	3.8	0.7470644106826422	0.9368122818347584	0.0	0.682798705643184	0.9239032500880112	0.0	0.695714338835512	0.7002992982541105	0.0	0.7528129650621272	0.5610383942957626	0.0	0.7752366486397848	0.4711844008171961	0.0	0.748668806350519	0.4720856750881696	0.0	0.7724944135570433	0.5396736375190273	0.0	0.8134254601120654	0.9332115562978539	0.0	0.8144107730544616	0.7023367354600889	0.0	0.7902406584706752	0.47358618428259314	0.0	0.7646710569364443	0.39268690768297204	0.0	0.8020310195780809	0.4006368197846948	0.0	0.7835336295247577	0.43831635117890405	0.0	0.7281728862833937	1.3004578561087552	0.0	0.7365444555976189	1.4568208967998435	0.0	0.7717534736270367	1.3695659741445358	0.0	0.5977457799650346	1.248151093234187	0.0	0.5873086394910425	1.0862943063778687	0.0	0.6842858069067455	0.9900180469128981	0.0	0.8454529950902135	1.2528396444237766	0.0	0.8688415626318026	1.0981691850726685	0.0	0.7736560045484954	0.9966852857500702	0.0
115	3.8333333333333335	0.7438623840144438	0.9361920373983087	0.0	0.6788343406700948	0.9236404795663791	0.0	0.6894453202446588	0.6947929788911823	0.0	0.7434299332351254	0.5658920790958514	0.0	0.7742282074596208	0.4734768233091901	0.0	0.7470431813192928	0.4717395608378894	0.0	0.7603543595983046	0.5472646332617772	0.0	0.8099759405403378	0.9317835924721282	0.0	0.812665765575564	0.6974522966043749	0.0	0.7892882062587551	0.4729323477471991	0.0	0.7643599551502193	0.39313773852315703	0.0	0.8007323084818546	0.3998761560566058	0.0	0.7833279138516442	0.43792711601876816	0.0	0.7252811223147483	1.304343149015222	0.0	0.7336328329119692	1.4586439536713878	0.0	0.7689905109964562	1.3730298820265345	0.0	0.594689587891774	1.2506006186266654	0.0	0.5830907907158706	1.088810351584328	0.0	0.6866609819698667	0.9942503396038932	0.0	0.8440095620554984	1.2541016054750658	0.0	0.8655174953921402	1.098945023066234	0.0	0.7702541942274266	1.0001107769611415	0.0
116	3.8666666666666667	0.7402563511155426	0.9362243128722645	0.0	0.6741726833971535	0.9254115886989358	0.0	0.6821902285540025	0.6921107652071362	0.0	0.734375190359112	0.5649499685263926	0.0	0.77000528706744	0.46857549610091703	0.0	0.7416815666016032	0.4676334445196115	0.0	0.748965751795765	0.5501573158482455	0.0	0.8065600639389229	0.9323913480218188	0.0	0.8107272849785357	0.693712544183102	0.0	0.7884852829401342	0.47138885597306085	0.0	0.7650336286066703	0.3933500245096101	0.0	0.79909983374795	0.39894240811232234	0.0	0.7821543494664323	0.43704810840336517	0.0	0.7229159068656281	1.3069278378043396	0.0	0.7308387093072796	1.46022757384736	0.0	0.7651829351615531	1.3749568384366107	0.0	0.5905391516704652	1.2525792230184998	0.0	0.5785349664430983	1.089575584677449	0.0	0.6872107681441066	0.9982178051617431	0.0	0.8428376894121783	1.254280531807909	0.0	0.8617716124287313	1.0977517740264713	0.0	0.7667880931250267	1.0029010963171792	0.0
117	3.9	0.7353732142667153	0.9350556615314161	0.0	0.6685934787959387	0.9270060350538928	0.0	0.6721272152570498	0.6931961421454541	0.0	0.725621230474334	0.5597718078984248	0.0	0.7580321164839324	0.455982823519226	0.0	0.7279961209774306	0.4604675259587311	0.0	0.7410264528490048	0.5477970515572455	0.0	0.8022656499933851	0.9332639789376876	0.0	0.8089938039210867	0.6920610940138684	0.0	0.7871298532195184	0.4708285072975232	0.0	0.7648688076743287	0.3935141246595432	0.0	0.7972121033408395	0.3987538253206726	0.0	0.7795205217152604	0.4378557430490473	0.0	0.7205051476586937	1.3084398988139372	0.0	0.7279191843270293	1.4641055254008672	0.0	0.7611034445474807	1.3773766096107611	0.0	0.5853277696437006	1.2539111075151277	0.0	0.5738247575872513	1.0884410291955018	0.0	0.6830220036812731	0.9980424976200485	0.0	0.8409537777867572	1.2537311913547482	0.0	0.8585712236373715	1.0946028215459598	0.0	0.7636610654221332	1.0006724047840854	0.0
118	3.933333333333333	0.7284242482742599	0.9325667223906757	0.0	0.6610894221550813	0.9256803129286668	0.0	0.6587246766650098	0.6960238783953974	0.0	0.715974636586009	0.5534716855977582	0.0	0.7356015769336245	0.4401755996713651	0.0	0.7041738974923539	0.4510868538617135	0.0	0.7347925018868945	0.54317696257256	0.0	0.7965101879573051	0.931855133176169	0.0	0.8064467770151621	0.6906932674525799	0.0	0.7846811287414792	0.47261830316439085	0.0	0.7618909676574012	0.3937985969297856	0.0	0.7942622923965605	0.3992461785577786	0.0	0.7753389684045404	0.4420412625683338	0.0	0.7164224402349058	1.3095497872776056	0.0	0.7236361896283252	1.4691382973678175	0.0	0.7566908751711996	1.3806079299161973	0.0	0.5793679104163656	1.2544255423190602	0.0	0.568935173274095	1.086994072390078	0.0	0.6765420460702886	0.9963888729298492	0.0	0.8373197527069827	1.253695856945964	0.0	0.8558244340263742	1.091499216644174	0.0	0.7610992494791127	0.9960707020567545	0.0
119	3.966666666666667	0.7198352798202206	0.9308810825737418	0.0	0.6515456174165783	0.9229473366943189	0.0	0.6433627410404673	0.6980724853974931	0.0	0.7048364135698036	0.5441801738129556	0.0	0.7056301946777077	0.42404972876628555	0.0	0.6744475900088743	0.43798135763540924	0.0	0.7270920771428645	0.532640506222738	0.0	0.7896237536515762	0.9290865022357806	0.0	0.8021035588625384	0.6889405713248876	0.0	0.7813631675956437	0.4764252563528444	0.0	0.7575882403923098	0.3944960592507553	0.0	0.790877866690681	0.4002461802825204	0.0	0.7711002229369369	0.4485320912306053	0.0	0.7103879428905682	1.3103225848542355	0.0	0.7175218382477787	1.4725952799811417	0.0	0.7517898743686516	1.3829342574064878	0.0	0.5731217158536748	1.2546278116922522	0.0	0.5637575969429923	1.086608041648677	0.0	0.672338426894568	0.9980762086101196	0.0	0.8323812203009654	1.2546097423213605	0.0	0.8527943055413816	1.0900998259985617	0.0	0.7587861890024755	0.9939110102096523	0.0
